<?xml version="1.0" standalone="no"?><!DOCTYPE svg PUBLIC "-//W3C//DTD SVG 1.1//EN" "http://www.w3.org/Graphics/SVG/1.1/DTD/svg11.dtd"><svg t="1548676174442" class="icon" style="" viewBox="0 0 1024 1024" version="1.1" xmlns="http://www.w3.org/2000/svg" p-id="18793" xmlns:xlink="http://www.w3.org/1999/xlink" width="200" height="200"><defs><style type="text/css"></style></defs><path d="M919.092183 692.511213c-74.985832-67.678402-107.752096-20.321838-170.404018-104.681154-81.235163-109.545952 8.586562-190.889585-83.245959-289.840224 0 0-60.314691-60.668755-149.32084-60.668755-59.826574 0-132.586714 27.41335-208.659297 119.026884C189.059402 498.931357 243.614925 694.738951 407.445224 829.41628c110.360504 90.854241 229.741451 127.721917 328.474127 127.721917 84.060511 0 153.125493-26.759457 188.771341-69.687152C975.006657 826.835502 961.857173 731.11851 919.092183 692.511213zM881.871467 851.912643c-25.37697 30.591739-81.289398 49.582255-145.95314 49.582255-57.272401 0-171.546028-14.942317-293.154713-115.059526-82.594113-67.921949-134.486994-153.777339-142.256958-235.582483-5.597485-58.957787 11.138688-112.453165 49.773613-158.966525 54.501288-65.61337 110.306268-98.92301 165.841096-98.92301 62.760392 0 108.404965 42.900066 108.567671 42.900066 31.950689 34.477232 31.461549 61.4567 30.645974 106.149599-0.923022 49.256844-2.065032 110.578468 48.686862 178.99058 42.11212 56.728002 78.084403 70.230528 117.316939 80.962963 20.974707 5.732561 36.134988 9.863648 60.47842 31.842219C900.999107 751.142565 914.257062 812.924677 881.871467 851.912643z" p-id="18794" fill="#adadad"></path><path d="M122.49538 512.001023c-30.755468 0-55.642275 24.913413-55.642275 55.642275 0 30.726815 24.886807 55.640228 55.642275 55.640228s55.642275-24.913413 55.642275-55.640228C178.137655 536.914436 153.249825 512.001023 122.49538 512.001023z" p-id="18795" fill="#adadad"></path><path d="M122.49538 345.0742c-30.755468 0-55.642275 24.914436-55.642275 55.642275s24.886807 55.642275 55.642275 55.642275 55.642275-24.914436 55.642275-55.642275S153.249825 345.0742 122.49538 345.0742z" p-id="18796" fill="#adadad"></path><path d="M315.504232 246.830665c0-37.927821-30.701233-68.683289-68.683289-68.683289s-68.683289 30.755468-68.683289 68.683289c0 37.926798 30.701233 68.683289 68.683289 68.683289S315.504232 284.757462 315.504232 246.830665zM233.779929 246.830665c0-7.199982 5.868661-13.041014 13.041014-13.041014s13.041014 5.841032 13.041014 13.041014c0 7.198959-5.868661 13.041014-13.041014 13.041014S233.779929 254.029624 233.779929 246.830665z" p-id="18797" fill="#adadad"></path><path d="M428.527378 233.789651c46.078455 0 83.463923-37.357839 83.463923-83.463923 0-46.107107-37.385469-83.463923-83.463923-83.463923s-83.463923 37.356816-83.463923 83.463923C345.064478 196.431811 382.448924 233.789651 428.527378 233.789651zM428.527378 122.505102c15.32401 0 27.821649 12.471033 27.821649 27.821649s-12.497639 27.821649-27.821649 27.821649-27.821649-12.471033-27.821649-27.821649S413.203368 122.505102 428.527378 122.505102z" p-id="18798" fill="#adadad"></path></svg>