<?xml version="1.0" standalone="no"?><!DOCTYPE svg PUBLIC "-//W3C//DTD SVG 1.1//EN" "http://www.w3.org/Graphics/SVG/1.1/DTD/svg11.dtd"><svg t="1548665307890" class="icon" style="" viewBox="0 0 1024 1024" version="1.1" xmlns="http://www.w3.org/2000/svg" p-id="9093" xmlns:xlink="http://www.w3.org/1999/xlink" width="200" height="200"><defs><style type="text/css"></style></defs><path d="M950.560896 521.968026 586.961784 158.375054c-42.146912-42.147936-110.725824-42.147936-152.87376 0.001023L70.498122 521.968026c-31.030737 31.03176-27.40721 55.600319-22.484084 67.487044 4.922103 11.881608 19.732413 31.818683 63.617923 31.818683l91.201142 0 0 104.237039 0.155543 0 0 120.640638c0 26.752294 21.765723 48.514947 48.516993 48.514947l148.922774 0c26.752294 0 48.516993-21.763676 48.516993-48.514947L448.945407 725.510792l117.470435 0 0 120.640638c0 26.752294 21.765723 48.514947 48.51904 48.514947l148.920728 0c26.755364 0 48.521087-21.763676 48.520063-48.497551L812.559868 621.272729l96.868211 0c43.884486 0 58.694797-19.936051 63.617923-31.818683C977.968106 577.568345 981.592656 552.999786 950.560896 521.968026zM909.42808 575.534012 792.819269 575.534012c-1.354857 0-2.680039 0.12382-3.970428 0.349971-12.258185 0.435928-22.071691 10.499122-22.081924 22.8668l-0.201591 247.400646c0 1.490957-1.215688 2.704598-2.707668 2.704598L614.935905 848.856028c-1.493004 0-2.706645-1.213641-2.706645-2.704598l0-166.450986L403.134035 679.700443l0 166.450986c0 1.490957-1.214664 2.704598-2.705622 2.704598L251.505639 848.856028c-1.490957 0-2.705622-1.213641-2.705622-2.704598l0-166.450986-0.156566 0 0-81.510432c0-12.649088-10.254551-22.906709-22.906709-22.906709-1.215688 0-2.408863 0.098237-3.571339 0.279363-0.369414-0.01842-0.74292-0.027629-1.11745-0.027629L111.631962 575.535035c-12.338003 0-18.735713-2.350534-21.00029-3.733021 0.623193-2.579755 3.486404-8.765641 12.21009-17.488303l363.590925-363.592972c24.313755-24.312732 63.872726-24.312732 88.186482 0l363.599112 363.592972c8.723685 8.721639 11.585873 14.907525 12.21009 17.488303C928.16277 573.183478 921.764036 575.534012 909.42808 575.534012z" p-id="9094" fill="#00dcff"></path></svg>