<?xml version="1.0" standalone="no"?><!DOCTYPE svg PUBLIC "-//W3C//DTD SVG 1.1//EN" "http://www.w3.org/Graphics/SVG/1.1/DTD/svg11.dtd"><svg t="1548665393731" class="icon" style="" viewBox="0 0 1024 1024" version="1.1" xmlns="http://www.w3.org/2000/svg" p-id="9991" xmlns:xlink="http://www.w3.org/1999/xlink" width="200" height="200"><defs><style type="text/css"></style></defs><path d="M531.523147 277.56055l-39.065737 0 0 214.868719L277.589714 492.429269l0 39.065737 214.867696 0 0 214.868719 39.065737 0L531.523147 531.495006l195.333804 0 0-39.065737L531.523147 492.429269 531.523147 277.56055zM835.531046 200.190415c-83.378989-86.449931-195.371666-135.131677-315.41367-137.381927l-8.335852-0.037862c-243.233744 0-444.728874 197.814298-449.136254 441.026552C58.14477 751.514025 256.034792 956.651103 503.806899 961.191512l8.296967 0.037862c243.25114 0 444.804598-197.890023 449.248817-441.026552C963.527209 400.159796 918.872173 286.488897 835.531046 200.190415zM929.135934 519.515161C924.976194 745.332233 737.864656 928.991136 512.103866 928.991136l-7.744381-0.113587c-229.974765-4.118807-413.691997-194.532555-409.456532-424.430572 4.081968-225.77921 191.099363-409.438113 416.878572-409.438113l7.742335 0.075725c111.458511 1.944282 215.383442 47.267537 292.734134 127.500882C889.647571 302.742069 931.118078 408.229588 929.135934 519.515161z" p-id="9992" fill="#00dcff"></path></svg>